<svg width="38" height="38" viewBox="0 0 38 38" fill="none" xmlns="http://www.w3.org/2000/svg">
<path d="M3.90391 31.6912C3.23594 31.6912 2.70156 31.142 2.70156 30.4889V6.32324C2.70156 5.65527 3.23594 5.1209 3.90391 5.1209H6.32344V6.32324C6.32344 6.99121 6.85781 7.52559 7.52578 7.52559H8.72813C9.39609 7.52559 9.93047 6.99121 9.93047 6.32324V5.1209H14.1609V6.32324C14.1609 6.99121 14.6953 7.52559 15.3633 7.52559H16.5656C17.2336 7.52559 17.768 6.99121 17.768 6.32324V5.1209H21.9984V6.32324C21.9984 6.99121 22.5328 7.52559 23.2008 7.52559H24.4031C25.0711 7.52559 25.6055 6.99121 25.6055 6.32324V5.1209H28.025C28.693 5.1209 29.2273 5.67012 29.2273 6.32324V13.1068C29.643 13.2553 30.0438 13.4186 30.4297 13.6115V6.32324C30.4297 4.9873 29.3461 3.90371 28.0102 3.90371H25.5906V2.70137C25.5906 2.0334 25.0562 1.49902 24.3883 1.49902H23.1859C22.518 1.49902 21.9836 2.0334 21.9836 2.70137V3.90371H17.7531V2.70137C17.7531 2.0334 17.2188 1.49902 16.5508 1.49902H15.3484C14.6805 1.49902 14.1461 2.0334 14.1461 2.70137V3.90371H9.94531V2.70137C9.94531 2.0334 9.41094 1.49902 8.74297 1.49902H7.54063C6.87266 1.49902 6.33828 2.0334 6.33828 2.70137V3.90371H3.90391C2.56797 3.90371 1.48438 4.9873 1.48438 6.32324V30.474C1.48438 31.81 2.56797 32.8936 3.90391 32.8936H15.0961C14.7992 32.5076 14.5172 32.1068 14.25 31.6912H3.90391ZM23.2305 5.10605V3.90371V2.70137H24.4328V3.90371V5.10605V6.3084H23.2305V5.10605ZM15.3781 5.10605V3.90371V2.70137H16.5805V3.90371V5.10605V6.3084H15.3781V5.10605ZM7.52578 5.10605V3.90371V2.70137H8.72813V3.90371V5.10605V6.3084H7.52578V5.10605Z" fill="#453E3E"/>
<path d="M25.0414 13.5674C18.7031 13.5674 13.5671 18.7033 13.5671 25.0416C13.5671 31.3799 18.7031 36.5158 25.0414 36.5158C31.3796 36.5158 36.5156 31.3799 36.5156 25.0416C36.5156 18.7033 31.3796 13.5674 25.0414 13.5674ZM25.0414 35.3135C19.3859 35.3135 14.7695 30.7119 14.7695 25.0416C14.7695 19.3861 19.371 14.7697 25.0414 14.7697C30.6968 14.7697 35.3132 19.3713 35.3132 25.0416C35.3132 30.7119 30.6968 35.3135 25.0414 35.3135Z" fill="#453E3E"/>
<path d="M25.65 23.2299V17.1885H24.4477V23.2299C23.7797 23.2299 23.2454 23.7643 23.2454 24.4322V25.6346C23.2454 26.3025 23.7797 26.8369 24.4477 26.8369H25.65C26.318 26.8369 26.8524 26.3025 26.8524 25.6346H31.6915V24.4322H26.8524C26.8524 23.7643 26.3032 23.2299 25.65 23.2299ZM25.65 25.6494H24.4477V24.4471H25.65V25.6494Z" fill="#453E3E"/>
<path d="M11.1476 13.5666C11.1476 12.8986 10.6132 12.3643 9.94522 12.3643H8.74287C8.0749 12.3643 7.54053 12.8986 7.54053 13.5666V14.7689C7.54053 15.4369 8.0749 15.9713 8.74287 15.9713H9.94522C10.6132 15.9713 11.1476 15.4369 11.1476 14.7689V13.5666ZM9.94522 14.7689H8.74287V13.5666H9.94522V14.7689Z" fill="#453E3E"/>
<path d="M14.7695 12.3496C14.1015 12.3496 13.5671 12.884 13.5671 13.552V14.7543C13.5671 15.4223 14.1015 15.9566 14.7695 15.9566H15.9718C16.6398 15.9566 17.1742 15.4223 17.1742 14.7543V13.552C17.1742 12.884 16.6398 12.3496 15.9718 12.3496H14.7695ZM15.9867 14.7691H14.7843V13.5668H15.9867V14.7691Z" fill="#453E3E"/>
<path d="M9.94522 20.8105H8.74287C8.0749 20.8105 7.54053 21.3449 7.54053 22.0129V23.2152C7.54053 23.8832 8.0749 24.4176 8.74287 24.4176H9.94522C10.6132 24.4176 11.1476 23.8832 11.1476 23.2152V22.0129C11.1476 21.3598 10.6132 20.8105 9.94522 20.8105ZM9.94522 23.2301H8.74287V22.0277H9.94522V23.2301Z" fill="#453E3E"/>
</svg>
