<svg width="379" height="701" viewBox="0 0 379 701" fill="none" xmlns="http://www.w3.org/2000/svg">
<path d="M378.973 239.775H353.756V224.799C355.988 224.491 358.531 223.664 361.101 221.879C366.427 218.143 370.126 211.454 372.1 202.01C372.313 200.919 372.518 199.828 372.66 198.891C384.202 130.831 301.687 85.5601 241.419 52.4998C232.598 47.662 224.275 43.0886 217.064 38.8789C201.299 29.6661 194.657 13.18 194.595 13.0368L189.5 0L184.405 13.1029C184.334 13.2792 177.149 31.1318 149.345 46.8575C143.619 50.0974 137.457 53.4696 131.01 56.996C73.4099 88.5135 -5.4684 131.679 6.39314 199.144C6.52651 200.092 6.69543 201.029 6.89994 201.988C8.8739 211.454 12.5729 218.143 17.899 221.879C20.4598 223.675 23.0117 224.491 25.2524 224.799V239.775H0.0177736L0 700.989H11.2836V253.76H36.5182V217.471L36.4204 208.456L29.3693 210.738C29.3426 210.76 26.2038 211.74 23.3407 209.647C20.851 207.828 18.9838 204.07 17.8279 198.472C17.6856 197.855 17.5789 197.249 17.4544 196.411C7.5046 139.856 81.5191 99.3573 135.572 69.7793C142.063 66.2309 148.278 62.8367 154.049 59.5637C173.175 48.7419 183.818 36.708 189.358 28.5641C193.688 35.5619 201.086 44.9841 212.272 51.519C219.598 55.8058 227.992 60.4012 236.866 65.2721C290.394 94.6407 371.3 139.019 361.617 196.114C361.501 196.885 361.359 197.679 361.181 198.494C360.025 204.07 358.176 207.828 355.668 209.647C352.832 211.707 349.737 210.771 349.72 210.771L342.482 208.104V253.76H367.716L367.734 701H379L378.973 239.775Z" fill="#EFE2E0" fill-opacity="0.4"/>
</svg>
