<svg width="40" height="40" viewBox="0 0 40 40" fill="none" xmlns="http://www.w3.org/2000/svg">
<path d="M34.2657 14.65C34.9351 14.658 35.4735 15.2018 35.4735 15.8698V26.6576C35.4735 32.8304 31.6143 36.6663 25.4279 36.6663H20.5082C19.8305 36.6663 19.2789 36.1226 19.2709 35.4465C19.2788 34.768 19.8281 34.2198 20.5082 34.2119H25.4279C30.3034 34.2119 32.9989 31.537 33.0431 26.6576V15.8698C33.0431 15.1961 33.5905 14.65 34.2657 14.65ZM24.2053 4.62648C24.8829 4.63453 25.4279 5.18492 25.4279 5.86105C25.4279 6.18714 25.2971 6.49967 25.0646 6.72886C24.8321 6.95806 24.5174 7.08484 24.1906 7.08091H13.3643C8.48876 7.08091 5.79323 9.7705 5.79323 14.65V26.6576C5.79323 31.537 8.48876 34.2119 13.3643 34.2119C14.0443 34.2198 14.5936 34.768 14.6016 35.4465C14.5935 36.1226 14.0419 36.6663 13.3643 36.6663C7.17782 36.6663 3.33337 32.8304 3.33337 26.6576V14.65C3.33337 8.46245 7.17782 4.62648 13.3643 4.62648H24.2053ZM26.0677 15.7899C26.4978 15.4969 27.0774 15.5053 27.5018 15.8311C27.9792 16.1975 28.118 16.8564 27.8288 17.3836L23.1153 23.4536C22.909 23.7077 22.6147 23.8755 22.2905 23.9239C21.9678 23.9566 21.6451 23.8616 21.3919 23.6593L16.8699 20.1173L12.8045 25.3936C12.6107 25.6568 12.3192 25.8314 11.9953 25.8783C11.6713 25.9253 11.3421 25.8407 11.0812 25.6435C10.5487 25.2269 10.4503 24.4609 10.8602 23.9239L15.6768 17.6629C15.8778 17.4033 16.174 17.2342 16.5 17.1928C16.8261 17.1515 17.1553 17.2413 17.4149 17.4424L21.9369 20.9844L25.9139 15.9139L26.0677 15.7899ZM30.6686 3.66628C32.2864 2.99284 34.1514 3.35889 35.393 4.59352C36.6346 5.82814 37.0078 7.68781 36.3384 9.30426C35.6689 10.9207 34.089 11.9751 32.3361 11.9751C29.9501 11.9751 28.0137 10.0495 28.0055 7.6688L28.0154 7.36206C28.1252 5.73705 29.1461 4.3001 30.6686 3.66628ZM32.3361 5.80226C31.3029 5.80226 30.4654 6.63794 30.4654 7.6688C30.4654 8.69966 31.3029 9.53534 32.3361 9.53534C33.3692 9.53534 34.2067 8.69966 34.2067 7.6688C34.2067 6.63794 33.3692 5.80226 32.3361 5.80226Z" fill="#453E3E"/>
</svg>
