<svg width="26" height="26" viewBox="0 0 26 26" fill="none" xmlns="http://www.w3.org/2000/svg">
<g clip-path="url(#clip0_59_17)">
<path d="M0.106604 13.0778C0.0754035 6.77539 4.6618 1.36999 10.9044 0.342992C12.6698 0.0543915 14.4144 0.134992 16.146 0.569192C16.8168 0.738191 17.1496 1.22179 17.004 1.80419C16.861 2.38139 16.3306 2.64919 15.665 2.49059C12.2226 1.67419 9.0506 2.29039 6.279 4.47959C3.2318 6.88979 1.8148 10.106 2.1502 13.9826C2.5844 19.024 6.201 22.8824 11.1904 23.7846C16.8012 24.796 22.4588 20.9636 23.6028 15.3554C23.751 14.6222 23.8004 13.8656 23.855 13.1194C23.9018 12.4902 24.2866 12.0508 24.8612 12.056C25.4332 12.0612 25.8414 12.5136 25.8414 13.1402C25.8362 19.2008 21.372 24.5776 15.4336 25.6722C8.9726 26.8578 2.8314 23.2568 0.754004 17.0558C0.319804 15.7662 0.117004 14.4376 0.106604 13.0778Z" fill="#C1A875"/>
<path d="M11.869 16.5305C12.0146 16.3485 12.129 16.2081 12.2382 16.0677C15.4986 11.9181 18.759 7.76848 22.0168 3.61628C22.2872 3.27048 22.62 3.07808 23.0594 3.16388C23.4702 3.24448 23.7328 3.50708 23.8316 3.91528C23.92 4.27928 23.7848 4.57568 23.5638 4.85648C21.6268 7.31868 19.6924 9.78348 17.7554 12.2483C16.133 14.3153 14.508 16.3823 12.8856 18.4493C12.3448 19.1383 11.765 19.1695 11.141 18.5455C9.56019 16.9647 7.97419 15.3839 6.39599 13.7979C5.80059 13.1999 6.01379 12.2873 6.79119 12.0845C7.18899 11.9831 7.51399 12.1183 7.79999 12.4017C9.07399 13.6809 10.3506 14.9549 11.6246 16.2315C11.7052 16.3121 11.7702 16.4083 11.869 16.5305Z" fill="#C1A875"/>
</g>
<defs>
<clipPath id="clip0_59_17">
<rect width="26" height="26" fill="white"/>
</clipPath>
</defs>
</svg>
