<svg width="40" height="40" viewBox="0 0 40 40" fill="none" xmlns="http://www.w3.org/2000/svg">
<path d="M34.2655 14.65C34.935 14.658 35.4734 15.2018 35.4734 15.8698V26.6576C35.4734 32.8304 31.6142 36.6663 25.4277 36.6663H20.508C19.8304 36.6663 19.2788 36.1226 19.2707 35.4465C19.2787 34.768 19.828 34.2198 20.508 34.2119H25.4277C30.3033 34.2119 32.9988 31.537 33.043 26.6576V15.8698C33.043 15.1961 33.5903 14.65 34.2655 14.65ZM24.2052 4.62648C24.8828 4.63453 25.4277 5.18492 25.4277 5.86105C25.4277 6.18714 25.2969 6.49967 25.0645 6.72886C24.832 6.95806 24.5172 7.08484 24.1905 7.08091H13.3642C8.48863 7.08091 5.79311 9.7705 5.79311 14.65V26.6576C5.79311 31.537 8.48863 34.2119 13.3642 34.2119C14.0442 34.2198 14.5935 34.768 14.6014 35.4465C14.5934 36.1226 14.0418 36.6663 13.3642 36.6663C7.17769 36.6663 3.33325 32.8304 3.33325 26.6576V14.65C3.33325 8.46245 7.17769 4.62648 13.3642 4.62648H24.2052ZM26.0675 15.7899C26.4977 15.4969 27.0772 15.5053 27.5017 15.8311C27.9791 16.1975 28.1179 16.8564 27.8287 17.3836L23.1152 23.4536C22.9088 23.7077 22.6145 23.8755 22.2903 23.9239C21.9677 23.9566 21.645 23.8616 21.3918 23.6593L16.8698 20.1173L12.8044 25.3936C12.6106 25.6568 12.3191 25.8314 11.9951 25.8783C11.6712 25.9253 11.342 25.8407 11.0811 25.6435C10.5486 25.2269 10.4502 24.4609 10.8601 23.9239L15.6767 17.6629C15.8776 17.4033 16.1738 17.2342 16.4999 17.1928C16.826 17.1515 17.1552 17.2413 17.4148 17.4424L21.9368 20.9844L25.9138 15.9139L26.0675 15.7899ZM30.6685 3.66628C32.2862 2.99284 34.1513 3.35889 35.3929 4.59352C36.6344 5.82814 37.0076 7.68781 36.3382 9.30426C35.6688 10.9207 34.0888 11.9751 32.336 11.9751C29.95 11.9751 28.0136 10.0495 28.0054 7.6688L28.0152 7.36206C28.1251 5.73705 29.1459 4.3001 30.6685 3.66628ZM32.336 5.80226C31.3028 5.80226 30.4653 6.63794 30.4653 7.6688C30.4653 8.69966 31.3028 9.53534 32.336 9.53534C33.3691 9.53534 34.2066 8.69966 34.2066 7.6688C34.2066 6.63794 33.3691 5.80226 32.336 5.80226Z" fill="#C1A875"/>
</svg>
