<svg width="32" height="38" viewBox="0 0 32 38" fill="none" xmlns="http://www.w3.org/2000/svg">
<path d="M12.0361 36.5059V35.3517C12.0361 34.875 12.0367 34.429 12.0373 34.0033C12.0384 33.208 12.0394 32.4832 12.0361 31.76C12.0337 31.4395 12.0203 31.2127 11.9926 31.0479C11.9647 30.8823 11.9292 30.8243 11.9158 30.8072L11.9154 30.8067C11.9067 30.7954 11.8476 30.7186 11.3273 30.7186H11.3133H11.2994H11.2854H11.2714H11.2574H11.2434H11.2294H11.2155H11.2015H11.1875H11.1735H11.1595H11.1455H11.1315H11.1176H11.1036H11.0896H11.0756H11.0616H11.0476H11.0336H11.0197H11.0057H10.9917H10.9777H10.9637H10.9497H10.9357H10.9217H10.9078H10.8938H10.8798H10.8658H10.8518H10.8378H10.8238H10.8098H10.7958H10.7819H10.7679H10.7539H10.7399H10.7259H10.7119H10.6979H10.6839H10.6699H10.656H10.642H10.628H10.614H10.6H10.586H10.572H10.558H10.544H10.5301H10.5161H10.5021H10.4881H10.4741H10.4601H10.4461H10.4321H10.4181H10.4041H10.3901H10.3762H10.3622H10.3482H10.3342H10.3202H10.3062H10.2922H10.2782H10.2642H10.2502H10.2362H10.2222H10.2083H10.1943H10.1803H10.1663H10.1523H10.1383H10.1243H10.1103H10.0963H10.0823H10.0683H10.0543H10.0403H10.0264H10.0124H9.99837H9.98437H9.97038H9.95639H9.94239H9.9284H9.91441H9.90041H9.88642H9.87242H9.85843H9.84444H9.83044H9.81645H9.80245H9.78846H9.77447H9.76047H9.74648H9.73248H9.71849H9.70449H9.6905H9.6765H9.66251H9.64851H9.63452H9.62052H9.60653H9.59253H9.57854H9.56454H9.55055H9.53655H9.52256H9.50856H9.49457H9.48057H9.46658H9.45258H9.43858H9.42459H9.41059H9.3966H9.3826H9.3686H9.35461H9.34061H9.32662H9.31262H9.29862H9.28463H9.27063H9.25664H9.24264H9.22864H9.21465H9.20065H9.18665H9.17266H9.15866H9.14466H9.13067H9.11667H9.10267H9.08867H9.07468H9.06068H9.04668H9.03269H9.01869H9.00469H8.9907H8.9767H8.9627H8.9487H8.93471H8.92071H8.90671H8.89271H8.87872H8.86472H8.85072H8.83672H8.82273H8.80873H8.79473H8.78073H8.76673H8.75274H8.73874H8.72474H8.71074H8.69674H8.68275H8.66875H8.65475H8.64075H8.62676H8.61276H8.59876H8.58476H8.57076H8.55676H8.54277H8.52877H8.51477H8.50077H8.48677H8.47277H8.45878H8.44478H8.43078H8.41678H8.40278H8.38878H8.37478H8.36079H8.34679H8.33279H8.31879H8.30479H8.29079H8.27679H8.2628H8.2488H8.2348H8.2208H8.2068H8.1928H8.1788H8.1648H8.15081H8.13681H8.12281H8.10881H8.09481H8.08081H8.06681H8.05281H8.03881H8.02482H8.01082H7.99682H7.98282H7.96882H7.95482H7.94082H7.92682H7.91282H7.89882H7.88483H7.87083H7.85683H7.84283H7.82883H7.81483H7.80083H7.78683H7.77283H7.75883H7.74484H7.73084H7.71684H7.70284H7.68884H7.67484H7.66084H7.64684H7.63284H7.61884H7.60485H7.59085H7.57685H7.56285H7.54885H7.53485H7.52085H7.50685H7.49285H7.47886H7.46486H7.45086H7.43686H7.42286H7.40886H7.39486H7.38086H7.36686H7.35287H7.33887H7.32487H7.31087H7.29687H7.28287H7.26887H7.25487H7.24088H7.22688H7.21288H7.19888H7.18488H7.17088H7.15688H7.14288H7.12889H7.11489H7.10089H7.08689H7.07289H7.05889H7.04489H7.0309H7.0169H7.0029H6.9889H6.9749H6.9609H6.94691H6.93291H6.91891H6.90491H6.89091H6.87692H6.86292H6.84892H6.83492H6.82092H6.80692H6.79293H6.77893H6.76493H6.75093H6.73694H6.72294H6.70894H6.69494H6.68094H6.66695H6.65295H6.63895H6.62495H6.61096H6.59696H6.58296H6.56896H6.55497H6.54097H6.52697H6.51297H6.49898H6.48498H6.47098H6.45699H6.44299H6.42899H6.41499H6.401H6.387H6.373H6.35901H6.34501H6.33101H6.31702H6.30302H6.28902H6.27503H6.26103H6.24703H6.23304H6.21904H6.20504H6.19105H6.17705H6.16306H6.14906H6.13506H6.12107H6.10707H6.09308H6.07908H6.06508H6.05109H6.03709H6.0231H6.0091H5.99511H5.98111H5.96711H5.95312H5.93912H5.92513H5.91113H5.89714H5.88314H5.86915H5.85515H5.84116H5.82716H5.81317H5.79917H5.78518H5.77118H5.75719H5.74319H5.7292H5.71521H5.70121H5.68722H5.67322H5.65923H5.64524H5.63124H5.61725H5.60325H5.58926H5.57527H5.56127H5.54728H5.53329H5.51929H5.5053H5.49131H5.47731H5.46332H5.44933H5.43533H5.42134H5.40735H5.39336H5.37936H5.36537H5.35138H5.33738H5.32339H5.3094H5.29541H5.28142H5.26742H5.25343H5.23944H5.22545H5.21146H5.19746H5.18347H5.16948H5.15549H5.1415H5.12751H5.11352H5.09953H5.08553H5.07154H5.05755H5.04356H5.02957H5.01558H5.00159H4.9876H4.97361H4.95962H4.94563H4.93164H4.91765H4.90366H4.88967H4.87568H4.86169H4.8477H4.83371H4.81972H4.80573H4.79174H4.77776H4.76377H4.74978H4.73579H4.7218H4.70781H4.69382H4.67983H4.66585H4.65186H4.63787H4.62388H4.60989H4.59591H4.58192H4.56793H4.55394H4.53996H4.52597H4.51198H4.49799H4.48401H4.47002H4.45603H4.44205H4.42806H4.41407H4.40009H4.3861H4.37212H4.35813H4.34414H4.33016H4.31617H4.30219H4.2882H4.27422H4.26023H4.24625H4.23226H4.21828H4.20429H4.19031H4.17632H4.16234C3.15481 30.7186 2.31513 30.3671 1.74169 29.6445C1.18342 28.941 0.931676 27.9534 0.931645 26.7788M12.0361 36.5059L4.26358 5.33865C2.21604 5.29176 0.869512 7.16373 0.901735 9.48776L0.901742 9.48821C0.960282 13.4619 0.949876 17.4358 0.939455 21.4157C0.934777 23.202 0.930096 24.9895 0.931645 26.7788M12.0361 36.5059L12.889 35.7282M12.0361 36.5059L12.889 35.7282M0.931645 26.7788C0.931645 26.7787 0.931645 26.7787 0.931645 26.7786H1.44114L0.931645 26.779C0.931645 26.779 0.931645 26.7789 0.931645 26.7788ZM12.5456 35.3517L12.2023 34.9753C12.3216 34.8665 12.4359 34.7628 12.546 34.6635C12.5458 34.8863 12.5456 35.1153 12.5456 35.3517ZM12.5456 35.3517H13.0551C13.0551 35.1949 13.0552 35.0412 13.0553 34.8904C12.894 35.0355 12.7248 35.1883 12.5456 35.3517ZM25.9719 32.0728C28.4185 32.1107 30.1061 29.8364 30.1161 26.8481C30.1251 24.1603 30.1233 21.4749 30.1215 18.7903C30.1203 17.0009 30.1191 15.2119 30.1211 13.423C30.1261 12.7596 29.9913 12.1531 29.3971 12.1278M25.9719 32.0728L28.6697 21.7795C28.6694 21.091 28.6691 20.4027 28.6731 19.7154C28.6831 17.6053 28.6781 15.4952 28.6681 13.3787C28.6631 12.7154 28.773 12.1026 29.3971 12.1278M25.9719 32.0728C25.3276 32.0639 24.6826 32.0771 24.0379 32.0904M25.9719 32.0728L24.0379 32.0904M29.3971 12.1278L29.3755 12.6369C29.3757 12.6369 29.3759 12.6369 29.3761 12.6369M29.3971 12.1278L29.3765 12.6369C29.3764 12.6369 29.3763 12.6369 29.3761 12.6369M29.3761 12.6369C29.4339 12.6394 29.4534 12.6533 29.4595 12.6578C29.4692 12.665 29.4926 12.6863 29.5195 12.7458C29.58 12.8799 29.614 13.1062 29.6116 13.4191L29.6116 13.4224C29.6096 15.2134 29.6108 17.003 29.612 18.7924C29.6138 21.4759 29.6156 24.1591 29.6066 26.8464C29.5971 29.6884 28.0222 31.595 25.9798 31.5634L25.979 31.5634C25.3254 31.5543 24.6664 31.5679 24.0182 31.5812C23.7556 31.5866 23.4949 31.592 23.2369 31.5958C22.3331 31.6091 21.4479 31.604 20.5724 31.5214M29.3761 12.6369C29.3402 12.6355 29.3194 12.639 29.3096 12.6415C29.3076 12.642 29.3059 12.6425 29.3046 12.6429C29.3026 12.6435 29.3013 12.644 29.3006 12.6444L29.2986 12.6454C29.2984 12.6455 29.2977 12.646 29.2965 12.6471C29.2952 12.6483 29.2929 12.6506 29.2897 12.6546C29.2833 12.6627 29.2731 12.678 29.2613 12.7041C29.2051 12.8289 29.1752 13.0511 29.1776 13.3749L29.1776 13.3763C29.1876 15.4935 29.1926 17.6054 29.1826 19.7178L29.1826 19.7184C29.1786 20.3987 29.1789 21.0826 29.1792 21.7687C29.1799 23.6661 29.1807 25.5797 29.0922 27.4783L29.0922 27.4783C29.0476 28.4329 28.7302 29.2414 28.1945 29.8182C27.656 30.3981 26.9226 30.7148 26.1141 30.7186L26.1132 30.7186C25.5619 30.7203 25.0066 30.7269 24.4488 30.7336C22.913 30.7519 21.358 30.7705 19.8127 30.6863L19.8404 30.1775L20.5724 31.5214M20.5724 31.5214C18.8224 31.356 17.5011 32.1312 16.2981 33.3807M20.5724 31.5214L3.61098 4.59471C1.99049 4.63574 0.56138 6.30249 0.542582 8.65057C0.497663 14.9153 0.497665 21.1861 0.547573 27.4505C0.5662 29.7367 1.99929 31.4112 3.56816 31.4881L3.56819 31.4881C5.01397 31.5591 6.45139 31.5577 7.90278 31.5563C8.63564 31.5555 9.37206 31.5548 10.1149 31.5634L10.1193 31.5634C10.3639 31.5684 10.6201 31.5988 10.8666 31.6281C10.9646 31.6397 11.061 31.6512 11.1546 31.6608L11.6121 31.7077V32.1676C11.6121 32.6192 11.6093 33.0605 11.6065 33.4945C11.5995 34.5815 11.5928 35.6227 11.6318 36.6658L11.6318 36.6678C11.6377 36.8439 11.6742 37.0587 11.7351 37.2458C11.7652 37.3384 11.7981 37.4143 11.8298 37.4705C11.8308 37.4724 11.8319 37.4743 11.833 37.4761C11.8435 37.4731 11.8551 37.4695 11.8678 37.4652C11.9926 37.4227 12.1267 37.3423 12.2069 37.269L12.2083 37.2677C13.6024 36.0032 14.9834 34.744 16.2981 33.3807M20.5724 31.5214L20.5245 32.0286M20.5724 31.5214C20.5724 31.5214 20.5724 31.5214 20.5724 31.5214L20.5245 32.0286M14.8197 33.9703C14.8197 33.9703 14.8196 33.9704 14.8196 33.9704L14.4679 33.6017L14.8197 33.9703ZM14.8197 33.9703C14.4556 34.3179 14.0803 34.6548 13.6616 35.0307M14.8197 33.9703L13.6616 35.0307M16.2981 33.3807L16.6649 33.7344M16.2981 33.3807C16.298 33.3808 16.2979 33.3809 16.2978 33.381L16.6649 33.7344M16.6649 33.7344C17.8083 32.5467 18.9866 31.8833 20.5245 32.0286M16.6649 33.7344C15.3367 35.1117 13.9437 36.3815 12.5506 37.6451L20.5245 32.0286M20.5245 32.0286C21.6912 32.1387 22.8641 32.1146 24.0379 32.0904M20.5245 32.0286L24.0379 32.0904M12.889 35.7282C13.165 35.4764 13.4205 35.2471 13.6616 35.0307M12.889 35.7282L13.6616 35.0307M12.074 4.53192C13.2537 4.53367 14.4345 4.53542 15.6172 4.53169L3.61101 4.59471C6.43055 4.52353 9.24884 4.52772 12.074 4.53192ZM17.848 4.51903C17.9718 4.52056 18.0716 4.52554 18.1561 4.5395C18.2401 4.55336 18.2857 4.57263 18.3098 4.58778C18.3267 4.59844 18.3426 4.61212 18.3589 4.6484C18.3784 4.69191 18.4042 4.78235 18.4023 4.95143C18.4004 5.11654 18.3736 5.2057 18.3532 5.24952C18.3359 5.28647 18.3194 5.30062 18.3023 5.3113C18.2395 5.35038 18.1127 5.37643 17.8382 5.37643C16.5759 5.37643 15.3154 5.38132 14.056 5.3862C10.7878 5.39886 7.52739 5.4115 4.26393 5.33866L17.848 4.51903ZM10.109 32.0728C9.38006 32.0644 8.65053 32.0651 7.92082 32.0658C6.46137 32.0672 5.00118 32.0686 3.5432 31.997L10.109 32.0728Z" fill="#453E3E" stroke="#453E3E"/>
<path d="M17.5086 14.9645C17.1691 13.1956 17.8731 12.0395 18.8268 10.8707C21.563 7.52229 24.2243 4.07282 26.9155 0.667573C27.6046 -0.204271 27.9291 -0.223225 28.5982 0.617031C29.4969 1.7479 30.3957 2.88509 31.2794 4.04123C31.8087 4.73618 31.7937 5.21001 31.2545 5.89232C28.2287 9.72717 25.2079 13.562 22.1572 17.3653C21.8875 17.7001 21.4332 17.9149 21.0537 17.9528C20.2149 18.0413 19.3611 17.9907 18.5172 17.9781C17.7383 17.9655 17.5186 17.6685 17.5086 16.664C17.5037 16.1017 17.5086 15.5331 17.5086 14.9645ZM27.7643 2.32281C27.6994 2.37335 27.6245 2.40494 27.5746 2.4618C24.7935 5.97445 22.0074 9.49341 19.2312 13.0187C18.9666 13.3535 18.7869 15.3815 18.9716 15.8174C19.0115 15.9185 19.1014 16.0007 19.1813 16.0512C19.7505 16.386 21.1386 16.0386 21.6079 15.4573C24.0096 12.4375 26.4112 9.4176 28.8079 6.39142C29.1724 5.93022 29.5119 5.43744 29.8714 4.95098C29.1524 4.06018 28.4833 3.21993 27.7643 2.32281Z" fill="#453E3E"/>
<path d="M10.5184 24.0364C8.98057 24.0364 7.43772 24.0427 5.89987 24.0301C5.66021 24.0301 5.38559 24.0048 5.19086 23.8595C5.01111 23.7205 4.81638 23.3857 4.82637 23.1519C4.84135 22.8676 5.0161 22.5012 5.21083 22.3559C5.42054 22.1916 5.7351 22.1916 5.99973 22.1853C9.00554 22.1727 12.0113 22.198 15.0121 22.1601C15.6662 22.1537 15.9009 22.4191 15.866 23.2404C15.841 23.8406 15.7062 24.0617 15.2119 24.0491C13.6441 24.0111 12.0812 24.0364 10.5184 24.0364Z" fill="#453E3E"/>
<path d="M20.4446 24.037C19.1813 24.037 17.9131 24.0117 16.6499 24.0497C16.1505 24.0623 15.9159 23.898 15.9458 23.2157C15.9708 22.6471 15.9458 22.1607 16.5899 22.167C19.1713 22.1922 21.7527 22.1796 24.3291 22.1796C24.8634 22.1796 25.3128 22.4134 25.2878 23.1652C25.2628 23.8538 24.8184 24.0433 24.3191 24.037C23.026 24.0307 21.7378 24.037 20.4446 24.037Z" fill="#453E3E"/>
<path d="M9.4499 11.9324C8.2316 11.9324 7.0183 11.9387 5.8 11.9324C5.30069 11.9324 4.81138 11.8313 4.80638 11.0163C4.80139 10.1887 5.30069 10.0813 5.795 10.0813C8.22661 10.0687 10.6632 10.075 13.0948 10.075C13.6191 10.075 14.1583 10.1698 14.1284 11.0479C14.1034 11.8313 13.6141 11.9387 13.1048 11.9387C11.8865 11.9324 10.6682 11.9324 9.4499 11.9324Z" fill="#453E3E"/>
<path d="M9.47493 17.9848C8.2816 17.9848 7.09325 17.9848 5.89992 17.9848C5.38564 17.9848 4.83141 17.9659 4.81144 17.1003C4.79147 16.159 5.38564 16.1337 5.91989 16.1274C8.30157 16.1211 10.6882 16.1211 13.0699 16.1274C13.5892 16.1274 14.1384 16.1969 14.1284 17.0687C14.1184 17.9216 13.5792 17.9911 13.0549 17.9848C11.8616 17.9848 10.6683 17.9848 9.47493 17.9848Z" fill="#453E3E"/>
</svg>
