<svg width="43" height="43" viewBox="0 0 43 43" fill="none" xmlns="http://www.w3.org/2000/svg">
<path d="M34.0431 35.6861C31.8931 36.9761 29.67 37.7372 27.2835 38.0167C26.8105 38.0726 26.2773 38.2446 26.1956 37.4835C26.0967 36.5977 26.2515 36.3698 27.047 36.2709C29.0293 36.0215 30.9041 35.4367 32.7574 34.3789C32.0307 33.6651 31.3642 32.9814 30.6547 32.3407C30.5429 32.2375 30.2462 32.2848 30.057 32.3364C29.0637 32.6073 28.0747 32.9126 27.0814 33.1835C26.66 33.2996 26.2945 33.2437 26.2042 32.7062C26.0666 31.915 26.2515 31.5667 26.8449 31.4334C27.5802 31.27 28.3069 31.0808 29.0207 30.9088C27.391 29.292 25.8043 27.7182 24.2391 26.1659C24.2348 26.2734 24.2133 26.5099 24.2133 26.7507C24.209 30.2724 24.2004 33.7941 24.2176 37.3115C24.2219 38.3263 23.9209 39.1261 22.9577 39.5561C22.0676 39.9517 21.3022 39.7238 20.4336 38.8466C17.4666 35.8581 14.4953 32.8739 11.5369 29.8811C11.0854 29.4253 10.5823 29.2146 9.94162 29.2232C8.53982 29.2447 7.13372 29.2361 5.73192 29.2275C3.50022 29.2146 1.99952 27.7268 1.99522 25.508C1.98662 22.7689 1.98662 20.0298 1.99522 17.2907C2.00382 15.145 3.50022 13.6357 5.63732 13.6228C7.10792 13.6142 8.58282 13.6486 10.0534 13.6056C10.5006 13.5927 10.9435 13.3863 11.524 13.2315C11.2488 12.9219 11.1241 12.7671 10.9822 12.6295C8.88382 10.5311 6.78542 8.43272 4.68702 6.33002C4.08932 5.73232 4.11082 5.62912 4.64832 5.04002C5.10412 4.53692 5.44812 4.61002 5.89962 5.06582C16.9377 16.1211 27.9844 27.1678 39.0397 38.2102C39.4697 38.6402 39.6331 38.9799 39.1128 39.4615C38.5065 40.0205 38.4076 40.0506 37.8228 39.4658C36.5629 38.2188 35.3159 36.9632 34.0431 35.6861ZM12.7194 14.3624C11.8465 14.7021 11.61 15.2869 11.6272 16.1856C11.6874 19.5009 11.6745 22.8162 11.6358 26.1272C11.6229 27.1162 11.6014 28.0364 12.6463 28.5567C12.7065 28.5868 12.7452 28.6513 12.7925 28.7029C15.7294 31.657 18.6663 34.6111 21.6118 37.5566C21.7666 37.7114 22.0246 37.763 22.2353 37.8619C22.3084 37.6598 22.4417 37.4534 22.4417 37.2513C22.4546 33.0158 22.4546 28.7803 22.4417 24.5448C22.4417 24.3169 22.3557 24.0288 22.2009 23.8783C19.0447 20.692 15.8713 17.5186 12.7194 14.3624ZM9.87282 15.3643C8.34632 15.3643 6.90152 15.3342 5.45672 15.3729C4.43332 15.403 3.74532 16.1211 3.73672 17.1617C3.71522 20.0169 3.71522 22.8678 3.74102 25.7144C3.74962 26.7722 4.48062 27.4516 5.55562 27.4688C6.86712 27.4903 8.17432 27.4774 9.48582 27.4731C9.61482 27.4731 9.74382 27.4215 9.87282 27.3957C9.87282 23.3924 9.87282 19.4192 9.87282 15.3643Z" fill="#453E3E"/>
<path d="M36.765 33.5441C36.3522 33.1356 35.9652 32.7486 35.7072 32.4863C36.7177 31.0071 37.8658 29.6569 38.6527 28.1218C43.3913 18.9026 37.3025 7.70537 26.9997 6.58307C26.2601 6.50137 26.1268 6.27777 26.1913 5.39197C26.2386 4.73837 26.6557 4.76847 27.1244 4.80717C34.5204 5.42207 41.0478 11.7732 41.8992 19.1821C42.527 24.6216 40.9446 29.3086 37.1391 33.2431C37.0746 33.3076 37.0101 33.3764 36.9413 33.4366C36.9112 33.4667 36.8682 33.4839 36.765 33.5441Z" fill="#453E3E"/>
<path d="M24.0456 20.8808C23.5683 20.3906 23.0652 19.9219 22.6309 19.3973C22.4804 19.2167 22.4589 18.8899 22.4589 18.6276C22.4503 14.3491 22.4546 10.0706 22.4417 5.79207C22.4417 5.52117 22.3041 5.25027 22.2267 4.97507C21.9816 5.11267 21.6935 5.20727 21.5043 5.39647C19.5134 7.37448 17.5397 9.36968 15.5617 11.3606C15.4026 11.5197 15.2349 11.6745 15.05 11.8465C14.6544 11.4423 14.2846 11.0639 13.8804 10.6554C13.975 10.5393 14.061 10.4103 14.1642 10.3028C16.2712 8.17857 18.3739 6.05437 20.4852 3.93877C21.3108 3.10887 22.1063 2.90247 22.9663 3.29377C23.8994 3.71947 24.2133 4.48917 24.209 5.47817C24.1961 10.4017 24.2047 15.3252 24.2047 20.2487C24.2047 20.4293 24.2047 20.6099 24.2047 20.7905C24.1531 20.8249 24.1015 20.855 24.0456 20.8808Z" fill="#453E3E"/>
<path d="M33.3723 30.1559C32.9853 29.7431 32.6155 29.3432 32.2371 28.939C32.7488 28.2983 33.325 27.6748 33.7894 26.9782C37.8142 20.9539 34.2108 12.6463 27.0599 11.4466C26.2687 11.3133 25.886 10.6726 26.2687 9.97601C26.3805 9.77391 26.8492 9.64491 27.1244 9.68361C29.0895 9.97171 30.874 10.7285 32.4736 11.9153C38.2399 16.1809 38.8591 24.7723 33.755 29.8119C33.6475 29.9194 33.5271 30.0226 33.3723 30.1559Z" fill="#453E3E"/>
<path d="M29.9582 26.7415C29.554 26.2986 29.1842 25.8944 28.6682 25.3354C28.7929 25.2709 28.9907 25.2193 29.1154 25.0946C31.833 22.2867 30.6978 17.6556 26.9955 16.4129C26.243 16.1592 25.9979 15.7034 26.2215 14.9552C26.4021 14.3532 26.8622 14.5209 27.2406 14.6413C29.9926 15.5228 31.7427 17.3503 32.2673 20.2098C32.7274 22.7855 31.8803 24.9441 29.9582 26.7415Z" fill="#453E3E"/>
</svg>
