<svg width="36" height="36" viewBox="0 0 36 36" fill="none" xmlns="http://www.w3.org/2000/svg">
<g clip-path="url(#clip0_70_294)">
<path d="M16.9056 0.56543C17.6328 0.56543 18.3636 0.56543 19.0908 0.56543C19.188 0.58703 19.2888 0.61943 19.386 0.62663C22.0824 0.83543 24.606 1.60943 26.91 3.02063C31.626 5.90783 34.4268 10.0838 35.28 15.5486C35.37 16.1174 35.4132 16.6934 35.4816 17.2622C35.4816 17.7626 35.4816 18.263 35.4816 18.7634C35.46 18.8966 35.4384 19.0298 35.4168 19.1594C35.2404 20.2538 35.1576 21.3734 34.8732 22.4426C32.4252 31.6226 23.2848 37.1018 14.004 34.985C7.24683 33.4406 1.94403 27.8426 0.788433 21.017C0.680433 20.3798 0.608433 19.739 0.518433 19.1018C0.518433 18.3746 0.518433 17.6474 0.518433 16.9202C0.540033 16.8122 0.572433 16.7006 0.579633 16.5926C0.856833 13.2014 2.03763 10.1558 4.08963 7.43783C4.16163 7.34063 4.23363 7.23983 4.30923 7.13183C2.46243 6.74303 1.50483 5.67743 1.62363 4.16903C1.72803 2.82983 2.82603 1.74623 4.16163 1.66703C5.68083 1.57343 6.73563 2.53103 7.09923 4.34903C7.21803 4.26623 7.32603 4.19063 7.43403 4.11143C9.68763 2.41223 12.2004 1.30343 14.9868 0.83183C15.624 0.72383 16.2684 0.65183 16.9056 0.56543ZM2.68923 17.9894C2.67843 26.381 9.50763 33.2642 17.874 33.2822C26.4096 33.3002 33.2892 26.4998 33.3 18.0218C33.3108 9.59063 26.46 2.73983 18.0072 2.73263C9.54723 2.72543 2.70363 9.54023 2.68923 17.9894ZM4.34523 2.73623C3.43443 2.73623 2.69643 3.46703 2.69643 4.37423C2.69643 5.28503 3.42723 6.01943 4.33803 6.02303C5.24523 6.02663 5.98683 5.28863 5.99043 4.38503C5.99043 3.47783 5.25603 2.73983 4.34523 2.73623Z" fill="#453E3E"/>
<path d="M17.9784 4.93262C25.2252 4.93262 31.1004 10.7862 31.1004 18.0078C31.1004 25.215 25.2252 31.083 18.0108 31.0866C10.7676 31.0902 4.8924 25.2294 4.896 18.0042C4.896 10.7862 10.7568 4.93262 17.9784 4.93262ZM17.9964 6.00542C11.358 6.00542 5.976 11.3586 5.9688 17.9682C5.9616 24.6282 11.3328 30.0102 17.9892 30.0138C24.6132 30.0174 30.0204 24.639 30.0204 18.0438C30.0276 11.3802 24.6564 6.00542 17.9964 6.00542Z" fill="#453E3E"/>
<path d="M10.4004 25.5817C10.6992 25.0453 10.962 24.5737 11.2248 24.0985C12.708 21.4309 14.1912 18.7633 15.6816 16.0993C15.7608 15.9589 15.8796 15.8113 16.0164 15.7357C19.1304 13.9969 22.2516 12.2725 25.3728 10.5409C25.4196 10.5157 25.47 10.4941 25.5852 10.4365C25.5096 10.5877 25.4628 10.6849 25.4124 10.7785C23.7168 13.8241 22.0248 16.8661 20.322 19.9081C20.2428 20.0485 20.1312 20.1997 19.9944 20.2753C16.848 22.0285 13.698 23.7709 10.548 25.5169C10.53 25.5313 10.5084 25.5385 10.4004 25.5817ZM18.0072 19.1089C18.6192 19.1053 19.1052 18.6121 19.098 17.9965C19.0908 17.4025 18.6048 16.9201 18.0072 16.9129C17.3952 16.9093 16.8984 17.3989 16.8984 18.0109C16.8984 18.6265 17.3916 19.1125 18.0072 19.1089Z" fill="#453E3E"/>
</g>
<defs>
<clipPath id="clip0_70_294">
<rect width="36" height="36" fill="white"/>
</clipPath>
</defs>
</svg>
