<svg width="138" height="48" viewBox="0 0 138 48" fill="none" xmlns="http://www.w3.org/2000/svg">
<path d="M27.0138 47.6157C27.0138 47.2157 27.0138 46.9369 27.0138 46.6459C27.0138 31.7721 27.0138 16.8982 27.0138 2.02439C27.0138 1.70922 27.0138 1.39405 27.0623 1.09099C27.1714 0.436398 27.7169 0 28.3836 0C29.0624 0 29.5958 0.412153 29.7291 1.06675C29.7897 1.34556 29.7776 1.63649 29.7897 1.92742C29.7897 16.874 29.7897 31.8206 29.8019 46.7671C29.8019 47.4702 29.5958 47.6884 28.9169 47.6278C28.323 47.5793 27.7169 47.6157 27.0138 47.6157Z" fill="#C1A875"/>
<path d="M97.4123 47.5796C96.4667 47.5796 95.6182 47.5796 94.6969 47.5796C94.6848 47.3129 94.6605 47.0583 94.6605 46.8037C94.6605 31.7844 94.6605 16.7651 94.6605 1.74582C94.6605 1.52762 94.6605 1.30942 94.6969 1.10335C94.8181 0.448754 95.3515 0.0123558 96.0182 0.000233657C96.7092 -0.0118885 97.2789 0.448753 97.388 1.12759C97.4365 1.4064 97.4244 1.69733 97.4244 1.98826C97.4244 16.8864 97.4244 31.7844 97.4244 46.6825C97.4123 46.9735 97.4123 47.2523 97.4123 47.5796Z" fill="#C1A875"/>
<path d="M23.0046 47.5919C22.0469 47.5919 21.2226 47.5919 20.3135 47.5919C20.3014 47.3131 20.2771 47.0586 20.2771 46.804C20.2771 34.1606 20.2771 21.5173 20.2771 8.87389C20.2771 8.6072 20.2771 8.34052 20.3377 8.08595C20.4953 7.4556 21.1135 7.03132 21.756 7.10406C22.4227 7.17679 22.8591 7.55258 22.9803 8.23142C23.0167 8.43749 23.0046 8.65569 23.0046 8.87389C23.0046 21.493 23.0046 34.1121 23.0046 46.7313C23.0046 46.9858 23.0046 47.2525 23.0046 47.5919Z" fill="#C1A875"/>
<path d="M90.6512 47.5792C89.6936 47.5792 88.845 47.5792 87.9237 47.5792C87.9237 47.2761 87.9237 47.0094 87.9237 46.7549C87.9237 34.9601 87.9237 23.1652 87.9237 11.3583C87.9237 11.1401 87.9116 10.9219 87.9358 10.7158C88.0086 10.0249 88.542 9.52785 89.2329 9.50361C89.9239 9.47936 90.5057 9.94 90.627 10.6067C90.6633 10.8128 90.6512 11.031 90.6512 11.2492C90.6512 23.0683 90.6512 34.8873 90.6512 46.7064C90.6512 46.9731 90.6512 47.2398 90.6512 47.5792Z" fill="#C1A875"/>
<path d="M117.697 47.6156C116.836 47.6156 116.06 47.6277 115.272 47.6035C115.163 47.6035 114.993 47.3732 114.981 47.2277C114.933 46.9246 114.969 46.6095 114.969 46.2943C114.969 34.9237 114.969 23.5653 114.969 12.1948C114.969 11.0432 115.478 10.4492 116.424 10.4856C117.103 10.5219 117.6 10.9704 117.685 11.6372C117.709 11.8554 117.709 12.0735 117.709 12.2796C117.709 23.7471 117.709 35.2026 117.709 46.6701C117.697 46.961 117.697 47.2398 117.697 47.6156Z" fill="#C1A875"/>
<path d="M33.8214 29.8081C33.8214 24.1471 33.8214 18.4861 33.8214 12.8251C33.8214 11.7704 34.3305 11.1764 35.2033 11.1886C35.9064 11.2007 36.4398 11.6613 36.5367 12.3523C36.561 12.5705 36.5489 12.7887 36.5489 12.9948C36.5489 24.2441 36.5489 35.4934 36.561 46.7306C36.561 47.4095 36.4034 47.6398 35.7003 47.6277C33.8093 47.5792 33.8093 47.6156 33.8093 45.7003C33.8214 40.4029 33.8214 35.1055 33.8214 29.8081Z" fill="#C1A875"/>
<path d="M74.4148 47.6277C74.3905 47.3125 74.3784 47.1186 74.3784 46.9367C74.3784 37.4936 74.3784 28.0384 74.3784 18.5952C74.3784 17.577 74.7906 17.0315 75.6149 16.9709C76.3786 16.9102 76.9847 17.3709 77.0938 18.1346C77.1301 18.3407 77.118 18.571 77.118 18.7771C77.118 28.099 77.1059 37.433 77.1301 46.7549C77.1301 47.4338 76.9847 47.7126 76.2695 47.6398C75.6755 47.5792 75.0815 47.6277 74.4148 47.6277Z" fill="#C1A875"/>
<path d="M110.949 47.5797C109.979 47.5797 109.13 47.5797 108.185 47.5797C108.185 47.2888 108.185 47.0221 108.185 46.7675C108.185 37.7486 108.185 28.7298 108.185 19.7109C108.185 19.42 108.173 19.1291 108.209 18.8503C108.318 18.1108 108.876 17.6623 109.615 17.6865C110.343 17.7108 110.852 18.1957 110.925 18.9472C110.949 19.2382 110.949 19.517 110.949 19.8079C110.949 28.7783 110.949 37.7486 110.949 46.7311C110.949 46.9857 110.949 47.2524 110.949 47.5797Z" fill="#C1A875"/>
<path d="M137.964 47.5793C137.067 47.5793 136.206 47.5793 135.285 47.5793C135.273 47.3247 135.248 47.0944 135.248 46.8641C135.248 38.0149 135.248 29.1658 135.248 20.3166C135.248 20.0984 135.236 19.8802 135.272 19.6741C135.382 18.9953 135.782 18.6074 136.46 18.5225C137.127 18.4377 137.709 18.8013 137.903 19.4438C137.976 19.6863 138 19.9651 138 20.2196C138 29.093 138 37.9664 138 46.8398C138 47.0701 137.976 47.3126 137.964 47.5793Z" fill="#C1A875"/>
<path d="M43.2835 47.5794C42.3622 47.5794 41.5137 47.5794 40.5682 47.5794C40.5682 47.2763 40.5682 47.0217 40.5682 46.7672C40.5682 38.7545 40.5682 30.7417 40.5682 22.729C40.5682 22.6078 40.5682 22.4866 40.5682 22.3653C40.5924 21.3956 41.1379 20.7652 41.9501 20.7773C42.7623 20.7773 43.3199 21.4198 43.3199 22.3896C43.3199 30.5963 43.3199 38.7908 43.3199 46.9975C43.3199 47.1672 43.2956 47.3369 43.2835 47.5794Z" fill="#C1A875"/>
<path d="M104.176 47.5916C103.218 47.5916 102.382 47.5916 101.485 47.5916C101.472 47.337 101.436 47.1067 101.436 46.8764C101.436 39.4092 101.436 31.9541 101.436 24.4868C101.436 24.3171 101.424 24.1474 101.448 23.9898C101.557 23.2746 102.151 22.814 102.879 22.8503C103.582 22.8867 104.091 23.3716 104.151 24.0747C104.176 24.2929 104.164 24.5111 104.164 24.7171C104.164 32.0632 104.164 39.397 104.164 46.743C104.176 46.9976 104.176 47.2643 104.176 47.5916Z" fill="#C1A875"/>
<path d="M9.5 47.5793C8.56659 47.5793 7.71805 47.5793 6.82101 47.5793C6.79677 47.3732 6.7604 47.1914 6.7604 47.0096C6.7604 40.0272 6.7604 33.057 6.74828 26.0747C6.74828 25.4686 6.91799 24.8988 7.46348 24.7049C7.88776 24.5594 8.51811 24.5594 8.85753 24.7776C9.19694 25.0079 9.45151 25.5898 9.46363 26.0383C9.52424 28.293 9.48788 30.5477 9.48788 32.8024C9.48788 37.4089 9.48788 42.0153 9.48788 46.6095C9.5 46.9126 9.5 47.2278 9.5 47.5793Z" fill="#C1A875"/>
<path d="M70.359 37.2272C70.359 40.4395 70.3469 43.6519 70.3711 46.8764C70.3711 47.4825 70.1893 47.7007 69.5953 47.6401C69.1468 47.5916 68.6862 47.6037 68.2255 47.6401C67.7164 47.6764 67.5709 47.4704 67.5709 46.9855C67.5952 45.1187 67.5831 43.2397 67.5831 41.3729C67.5831 36.9362 67.5831 32.4995 67.5831 28.0507C67.5831 27.8568 67.5831 27.6628 67.5831 27.4689C67.6073 26.4385 68.1528 25.796 68.9892 25.8202C69.8257 25.8324 70.3348 26.4748 70.3469 27.5173C70.3711 30.7418 70.359 33.9905 70.359 37.2272Z" fill="#C1A875"/>
<path d="M121.716 47.6282C121.716 47.2524 121.716 46.9857 121.716 46.7311C121.716 41.1671 121.716 35.603 121.716 30.039C121.716 29.942 121.716 29.845 121.716 29.748C121.74 28.7176 122.274 28.0873 123.122 28.1115C123.946 28.1237 124.48 28.7298 124.48 29.7238C124.492 35.4818 124.48 41.2398 124.492 46.9978C124.492 47.5191 124.322 47.6645 123.825 47.6403C123.171 47.5918 122.504 47.6282 121.716 47.6282Z" fill="#C1A875"/>
<path d="M0.0363664 47.5676C0.0242442 47.3131 0 47.0949 0 46.8888C0 41.6642 0 36.4395 0 31.2028C0 30.8755 0.0242442 30.5118 0.157588 30.2209C0.40003 29.6633 0.897037 29.3966 1.49102 29.4451C2.12137 29.4936 2.55777 29.8693 2.70323 30.4997C2.75172 30.6815 2.7396 30.8755 2.7396 31.0694C2.7396 36.3668 2.7396 41.6642 2.7396 46.9615C2.7396 47.1434 2.71536 47.3373 2.70323 47.5676C1.83044 47.5676 0.981892 47.5676 0.0363664 47.5676Z" fill="#C1A875"/>
<path d="M50.0548 47.5921C49.0972 47.5921 48.2607 47.5921 47.3758 47.5921C47.3516 47.3618 47.3273 47.1557 47.3273 46.9497C47.3273 41.6523 47.3273 36.3549 47.3273 31.0576C47.3273 29.906 48.1274 29.215 49.0972 29.5059C49.7639 29.712 50.0548 30.1726 50.0669 31.0818C50.0669 35.0094 50.0669 38.9491 50.0669 42.8766C50.0548 44.4161 50.0548 45.9678 50.0548 47.5921Z" fill="#C1A875"/>
<path d="M81.1374 47.6163C81.1374 47.3011 81.1374 47.0708 81.1374 46.8284C81.1374 41.7977 81.1374 36.767 81.1374 31.7363C81.1374 31.5666 81.1374 31.3969 81.1496 31.2393C81.2344 30.5362 81.7436 30.0392 82.4224 29.9908C83.1255 29.9423 83.7316 30.415 83.8649 31.1302C83.9134 31.3605 83.9013 31.603 83.9013 31.8454C83.9013 36.8276 83.8892 41.8098 83.9134 46.8041C83.9134 47.4708 83.7437 47.7012 83.077 47.6406C82.4588 47.58 81.8405 47.6163 81.1374 47.6163Z" fill="#C1A875"/>
<path d="M16.2644 47.6159C15.4038 47.6159 14.6764 47.6037 13.937 47.6159C13.5006 47.628 13.5127 47.3492 13.5127 47.034C13.5127 45.7127 13.5127 44.4035 13.5127 43.0822C13.5127 40.6335 13.5006 38.197 13.5127 35.7483C13.5127 34.7543 14.1309 34.1239 14.9916 34.1846C15.7917 34.2452 16.2644 34.8149 16.2644 35.7847C16.2765 38.8031 16.2644 41.8215 16.2644 44.8399C16.2644 45.7491 16.2644 46.634 16.2644 47.6159Z" fill="#C1A875"/>
<path d="M56.8168 47.58C55.8591 47.58 55.0106 47.58 54.0772 47.58C54.0772 46.9375 54.0772 46.3435 54.0772 45.7495C54.0772 43.6403 54.065 41.531 54.0893 39.4218C54.1014 38.355 54.7803 37.7247 55.7137 37.8944C56.344 38.0156 56.8046 38.4157 56.8168 39.046C56.8289 41.8583 56.8168 44.6949 56.8168 47.58Z" fill="#C1A875"/>
<path d="M128.536 47.6281C128.524 47.3251 128.499 47.0947 128.499 46.8523C128.499 44.5006 128.499 42.161 128.499 39.8093C128.499 38.8153 129.009 38.1971 129.809 38.1728C130.633 38.1486 131.227 38.8032 131.227 39.7972C131.239 42.1853 131.215 44.5854 131.239 46.9735C131.239 47.4826 131.081 47.6402 130.584 47.616C129.93 47.5917 129.263 47.6281 128.536 47.6281Z" fill="#C1A875"/>
<path d="M63.5557 47.6161C62.7314 47.6161 61.9798 47.6403 61.2161 47.5919C61.0828 47.5797 60.8525 47.3009 60.8525 47.1312C60.8282 45.3129 60.8161 43.4946 60.8525 41.6763C60.8646 40.9247 61.4707 40.355 62.1738 40.3186C62.8284 40.2943 63.5314 40.7792 63.5436 41.4338C63.5799 43.4825 63.5557 45.5068 63.5557 47.6161Z" fill="#C1A875"/>
</svg>
