<svg width="46" height="46" viewBox="0 0 46 46" fill="none" xmlns="http://www.w3.org/2000/svg">
<g clip-path="url(#clip0_70_265)">
<path d="M26.4972 13.8096C26.4972 14.0028 26.4972 14.127 26.4972 14.2512C26.4972 17.5126 26.5018 20.7786 26.5018 24.04C26.5018 26.8874 26.4834 29.7394 26.5064 32.5868C26.511 33.3687 26.3638 34.0956 25.9912 34.7672C24.303 37.8354 21.8236 39.8317 18.2908 40.3424C17.7388 40.4205 17.1546 40.4021 16.598 40.3194C14.551 40.0158 13.5206 38.3689 14.0956 36.3726C14.3716 35.4158 14.919 34.62 15.6182 33.93C17.8584 31.7174 20.5586 30.5352 23.705 30.3972C24.0086 30.3834 24.3168 30.4248 24.671 30.4432C24.671 30.3236 24.671 30.2132 24.671 30.0982C24.6756 27.1542 24.6848 24.2102 24.6848 21.2662C24.6848 16.4546 24.6756 11.643 24.671 6.83135C24.671 6.68875 24.6664 6.54615 24.6802 6.40815C24.7354 5.94815 25.108 5.61695 25.5726 5.61235C26.0372 5.60775 26.4144 5.93435 26.4788 6.39435C26.4834 6.44035 26.4972 6.49095 26.488 6.53695C26.3638 7.31435 26.6674 7.95835 27.0814 8.58395C27.6058 9.38435 28.0934 10.2078 28.6132 11.0128C29.4136 12.241 30.4624 13.2208 31.6952 14.0028C32.2932 14.3846 32.8912 14.7664 33.5168 15.0976C36.171 16.5006 37.0036 19.118 36.4194 21.7722C36.0928 23.258 35.4166 24.5506 34.1884 25.4936C33.9492 25.6776 33.6272 25.811 33.3282 25.8432C32.8774 25.8892 32.6612 25.5764 32.836 25.1578C32.9832 24.8036 33.204 24.4724 33.4156 24.1504C33.8066 23.557 34.1792 22.9544 34.331 22.246C34.6024 20.9948 34.193 19.8908 33.5766 18.8328C33.066 17.9542 32.3438 17.2826 31.433 16.8226C31.203 16.7076 30.9684 16.5788 30.7246 16.5006C29.1698 16.0038 27.8726 15.0976 26.6996 13.9936C26.6582 13.9476 26.6076 13.9062 26.4972 13.8096Z" fill="#453E3E"/>
<path d="M-2.38159 9.74316C5.01981 9.74316 12.412 9.74316 19.8272 9.74316C19.8272 10.2446 19.8272 10.7368 19.8272 11.2566C12.4304 11.2566 5.04281 11.2566 -2.38159 11.2566C-2.38159 10.7644 -2.38159 10.263 -2.38159 9.74316Z" fill="#453E3E"/>
<path d="M19.8319 17.8525C19.8319 18.3585 19.8319 18.8461 19.8319 19.3613C12.4213 19.3613 5.02909 19.3613 -2.38611 19.3613C-2.38611 18.8645 -2.38611 18.3723 -2.38611 17.8525C5.00149 17.8525 12.3937 17.8525 19.8319 17.8525Z" fill="#453E3E"/>
<path d="M-2.39075 27.481C-2.39075 26.9704 -2.39075 26.4782 -2.39075 25.9814C5.01525 25.9814 12.4167 25.9814 19.8181 25.9814C19.8273 26.0136 19.8365 26.0458 19.8457 26.078C19.7537 26.124 19.6663 26.1792 19.5697 26.216C18.5807 26.607 17.5963 26.998 16.6073 27.3798C16.4463 27.4396 16.2715 27.4948 16.1013 27.4948C10.0477 27.4994 3.99865 27.4994 -2.05495 27.4994C-2.16075 27.4948 -2.26655 27.4856 -2.39075 27.481Z" fill="#453E3E"/>
<path d="M9.78089 34.0908C9.62449 34.5922 9.47269 35.0844 9.31169 35.5996C5.42929 35.5996 1.53309 35.5996 -2.38611 35.5996C-2.38611 35.1028 -2.38611 34.6152 -2.38611 34.0908C1.66189 34.0908 5.71449 34.0908 9.78089 34.0908Z" fill="#453E3E"/>
</g>
<defs>
<clipPath id="clip0_70_265">
<rect width="46" height="46" fill="white"/>
</clipPath>
</defs>
</svg>
