<svg width="39" height="40" viewBox="0 0 39 40" fill="none" xmlns="http://www.w3.org/2000/svg">
<path d="M24.8859 27.3048L17.873 23.7678M14.1101 17.4698L21.123 13.9328M34.123 29.5049C34.123 32.2208 31.9404 34.4224 29.248 34.4224C26.5556 34.4224 24.373 32.2208 24.373 29.5049C24.373 26.789 26.5556 24.5874 29.248 24.5874C31.9404 24.5874 34.123 26.789 34.123 29.5049ZM34.123 9.83491C34.123 12.5508 31.9404 14.7524 29.248 14.7524C26.5556 14.7524 24.373 12.5508 24.373 9.83491C24.373 7.11905 26.5556 4.91741 29.248 4.91741C31.9404 4.91741 34.123 7.11905 34.123 9.83491ZM14.623 19.6699C14.623 22.3858 12.4404 24.5874 9.74798 24.5874C7.05559 24.5874 4.87298 22.3858 4.87298 19.6699C4.87298 16.954 7.05559 14.7524 9.74798 14.7524C12.4404 14.7524 14.623 16.954 14.623 19.6699Z" stroke="#262525" stroke-width="1.716" stroke-linecap="round" stroke-linejoin="round"/>
</svg>
