<svg width="44" height="45" viewBox="0 0 44 45" fill="none" xmlns="http://www.w3.org/2000/svg">
<path d="M19.822 8.96534C20.9748 7.86906 22.2904 7.04353 23.76 6.46654C27.72 4.90868 31.8736 6.05378 34.2408 9.38698C35.8028 11.584 36.1284 14.0517 35.7016 16.6526C35.442 18.2548 34.87 19.7505 34.1088 21.1797C33.8184 21.7256 33.264 21.8233 32.9252 21.4016C32.6876 21.1087 32.758 20.8202 32.9208 20.5051C33.6468 19.1203 34.1704 17.6645 34.4168 16.1067C34.9756 12.5648 33.4004 9.32041 30.3512 7.84243C28.2656 6.83049 26.1448 6.99471 24.046 7.82912C22.6512 8.37947 21.4412 9.21832 20.4204 10.3324C19.9672 10.8294 19.624 10.8161 19.1532 10.319C17.3624 8.4283 15.1844 7.34978 12.584 7.16336C9.05962 6.91038 5.77282 9.63997 5.18762 13.2927C4.78722 15.8004 5.44282 18.0995 6.55602 20.2965C8.18842 23.5187 10.5556 26.1595 13.266 28.4675C15.224 30.1363 17.3448 31.6098 19.3864 33.1766C19.6636 33.3896 19.9012 33.4162 20.1872 33.1943C20.5084 32.9502 20.8516 32.7372 21.1948 32.5241C21.5776 32.2889 21.9912 32.3555 22.1628 32.6972C22.352 33.0745 22.2948 33.4296 21.9252 33.6781C21.3796 34.042 20.8164 34.3838 20.2752 34.7477C19.9144 34.9919 19.5976 34.9297 19.25 34.7122C16.632 33.0745 14.1768 31.2148 11.8976 29.1199C9.47762 26.8963 7.29082 24.4685 5.67602 21.5703C4.42202 19.3156 3.64322 16.9277 3.70482 14.3136C3.80162 10.0794 6.87282 6.47542 10.9956 5.90287C14.1592 5.46347 16.9136 6.54643 19.3292 8.58364C19.4568 8.69016 19.58 8.81 19.7076 8.92095C19.7252 8.92095 19.7428 8.92539 19.822 8.96534Z" fill="black"/>
<path d="M40.2864 31.4682C40.2864 32.6887 40.2688 33.9093 40.2908 35.1298C40.3084 36.0574 39.93 36.7676 39.2216 37.3135C38.1128 38.1701 36.8148 38.5784 35.464 38.8092C32.4984 39.3152 29.568 39.2486 26.7608 38.0458C26.1712 37.7928 25.6344 37.3801 25.1372 36.9629C24.6444 36.5457 24.442 35.9554 24.4464 35.2852C24.4596 32.7952 24.4728 30.3009 24.4376 27.811C24.4244 26.8301 24.8116 26.1155 25.5552 25.5563C26.6596 24.7263 27.94 24.3269 29.2732 24.1005C32.2388 23.599 35.1648 23.6789 37.9808 24.8728C38.4384 25.0681 38.874 25.3477 39.27 25.6495C39.9476 26.1688 40.2996 26.8656 40.282 27.7577C40.2732 28.9916 40.2864 30.2299 40.2864 31.4682ZM32.3444 25.1213C31.2664 25.2589 30.1796 25.3521 29.1104 25.5474C28.1028 25.7338 27.126 26.0711 26.312 26.7369C25.6564 27.2695 25.6476 27.7888 26.312 28.3214C26.6376 28.5788 27.0028 28.8185 27.3856 28.9649C30.4084 30.15 33.484 30.1766 36.564 29.249C37.268 29.036 37.9412 28.6321 38.544 28.1927C39.0896 27.7977 39.0544 27.3272 38.5572 26.8656C38.2888 26.6171 37.9764 26.404 37.6464 26.2398C35.9744 25.4231 34.188 25.2057 32.3444 25.1213ZM25.7972 29.7283C25.7972 30.2521 25.8236 30.6737 25.7928 31.0865C25.7444 31.7034 25.9952 32.1606 26.5012 32.4402C27.0864 32.7642 27.6892 33.0926 28.3228 33.279C30.756 34.0069 33.2332 34.0202 35.6972 33.4699C36.5332 33.2835 37.3428 32.8973 38.1128 32.4979C38.4472 32.3248 38.7948 31.9209 38.8784 31.5658C39.006 31.0066 38.9136 30.3985 38.9136 29.7283C36.8412 30.8912 34.6544 31.2418 32.4016 31.2507C30.1312 31.2507 27.9312 30.8956 25.7972 29.7283ZM25.8896 33.8072C25.4716 34.9212 25.7972 35.942 26.8092 36.5368C27.0556 36.6832 27.3152 36.8031 27.5792 36.914C29.062 37.531 30.6328 37.7218 32.2168 37.7307C34.0384 37.744 35.86 37.5754 37.5188 36.7454C39.138 35.9376 39.028 35.6535 38.8476 33.8028C34.5444 35.7024 30.25 35.7068 25.8896 33.8072Z" fill="black"/>
<path d="M7.23802 14.2427C7.33922 11.6241 9.48642 9.44041 12.0604 9.33833C12.5796 9.31614 12.9052 9.55581 12.9316 9.97302C12.958 10.3947 12.6852 10.6432 12.1484 10.692C10.164 10.8651 8.72962 12.3387 8.61082 14.3315C8.57562 14.8863 8.31162 15.1925 7.87602 15.1615C7.44482 15.1348 7.21602 14.8019 7.23802 14.2427Z" fill="black"/>
</svg>
