<svg width="32" height="32" viewBox="0 0 32 32" fill="none" xmlns="http://www.w3.org/2000/svg">
<path d="M21.5749 23.8323L14.318 20.2039M10.4242 13.743L17.6811 10.1146M31.1334 26.0893C31.1334 28.8754 28.8749 31.1339 26.0888 31.1339C23.3027 31.1339 21.0442 28.8754 21.0442 26.0893C21.0442 23.3032 23.3027 21.0446 26.0888 21.0446C28.8749 21.0446 31.1334 23.3032 31.1334 26.0893ZM31.1334 5.91071C31.1334 8.69679 28.8749 10.9554 26.0888 10.9554C23.3027 10.9554 21.0442 8.69679 21.0442 5.91071C21.0442 3.12463 23.3027 0.866063 26.0888 0.866063C28.8749 0.866063 31.1334 3.12463 31.1334 5.91071ZM10.9549 16C10.9549 18.7861 8.6963 21.0446 5.91022 21.0446C3.12414 21.0446 0.865571 18.7861 0.865571 16C0.865571 13.2139 3.12414 10.9554 5.91022 10.9554C8.6963 10.9554 10.9549 13.2139 10.9549 16Z" stroke="#262525" stroke-width="1.716" stroke-linecap="round" stroke-linejoin="round"/>
</svg>
